<?xml version="1.0" encoding="UTF-8"?>
<svg id="Layer_2" data-name="Layer 2" xmlns="http://www.w3.org/2000/svg" viewBox="0 0 465.84 416.99">
  <defs>
    <style>
      .cls-1 {
        fill: #fc030e;
      }
    </style>
  </defs>
  <g id="Layer_1-2" data-name="Layer 1">
    <g>
      <path class="cls-1" d="M120.04,64.87h93v-24.48c0-1.42,3.8-7.53,5.02-8.97,8.43-9.93,25.93-10.25,35.01-1.06,1.47,1.48,5.96,9.52,5.96,11.03v23.48h38.5c.67,0,2.21,2.53,2.57,3.42,1.53,3.8,1.52,25.13.95,30.07-.31,2.66-1.16,5.17-3.77,6.22-6.84,2.74-36.71.1-38.15,1.35-.23.2-.82,4.18-1.7,5.8-10.23,18.89-40.56,15.34-44.97-5.95l-91.76.02c-8.83,24.22-39.85,24.45-48.28-.02-1.54-.42-26.04-.21-27.68.27s-3.01,2.64-3.95,4.05c-1.78,86.49-.23,173.37-.78,260.01.17,4.01,3.67,7.79,7.58,8.41l308.98.1c5.48-.02,9.74-2.59,9.51-8.48l-.02-200.83c.72-2.84,2.62-4.21,5.42-4.57,5.52-.72,21.44-.62,27.07.03,4.68.54,6.56,2.72,6.53,7.47-3.25,66.5,4.15,136.84,0,202.9-1.11,17.6-9.49,31.97-26.37,38.59-13.28,5.22-37.21,2.59-52.22,2.77-96.53,1.15-194.45-.68-291.95.04-20.6-3.25-33.05-19.04-34.55-39.41L.05,105.35c-1.07-15.97,19.87-40.48,35.48-40.48h37.5v-23.48c0-1.7,4.93-9.96,6.51-11.48,14.08-13.55,40.49-4.06,40.49,15.48v19.48Z"/>
      <path class="cls-1" d="M329.77.13c2.33-.49,9.76.58,12.64.94,62.67,7.78,110.57,60.96,121.31,121.57,1.11,6.29,5.53,19.11-3.13,20.22-5.02.64-21.11.66-26.1,0-1.16-.15-2.07-.15-3.06-.94-1.44-1.17-3.69-17.48-4.68-21.3-10.34-39.59-42.35-74.57-82.71-84.21-6.04-1.44-18.16-.34-19.05-6.94-.54-3.96-.63-21.36.07-25,.43-2.24,2.56-3.87,4.71-4.33Z"/>
      <path class="cls-1" d="M325.04,63.37c.9-3.22,7.66-2.67,10.4-2.39,28.78,2.96,55.77,27.38,64.62,54.32,1.23,3.74,7.57,27.49,1.48,27.49h-30c-2.13,0-4.48-12.37-5.65-15.34-4.11-10.45-14.36-21.56-24.53-26.44-3.15-1.51-16.32-4.21-16.32-6.67,0-6.48-1.28-26.39,0-30.97Z"/>
    </g>
  </g>
</svg>